<?xml version="1.0" encoding="utf-8"?>
<!-- Generator: Adobe Illustrator 25.0.1, SVG Export Plug-In . SVG Version: 6.00 Build 0)  -->
<svg version="1.1" id="Camada_1" xmlns="http://www.w3.org/2000/svg" xmlns:xlink="http://www.w3.org/1999/xlink" x="0px" y="0px"
	 viewBox="0 0 1366 768" style="enable-background:new 0 0 1366 768;" xml:space="preserve">
<style type="text/css">
	.st0{fill:url(#SVGID_1_);}
</style>
<g>
	<linearGradient id="SVGID_1_" gradientUnits="userSpaceOnUse" x1="77.4807" y1="470.7265" x2="167.9853" y2="313.968">
		<stop  offset="0" style="stop-color:#21367F"/>
		<stop  offset="0.2815" style="stop-color:#194E91"/>
		<stop  offset="0.8726" style="stop-color:#068BC0"/>
		<stop  offset="0.9951" style="stop-color:#0298CA"/>
		<stop  offset="1" style="stop-color:#0298CA"/>
	</linearGradient>
	<path class="st0" d="M108.63,438.3c-7.74,0-14.87-1.43-21.46-4.35L71.01,462l-14.4-8.35l16.57-28.73c-0.95-0.88-1.9-1.77-2.85-2.72
		c-10.66-10.53-16.03-23.23-16.03-38.23c0-14.94,5.36-27.71,16.03-38.23c10.59-10.53,23.29-15.82,38.3-15.82
		c11.61,0,22.14,3.33,31.58,9.98c9.24,6.66,15.69,15.35,19.42,26.08h37.42c-4.28-20.85-14.6-38.03-31.1-51.55
		c-16.57-13.85-35.72-20.78-57.32-20.78c-24.99,0-46.32,8.83-64.04,26.62c-17.59,17.52-26.35,38.78-26.35,63.7
		c0,24.99,8.76,46.32,26.35,64.04c17.73,17.59,39.05,26.35,64.04,26.35h90.32V438.3H108.63z"/>
	<path d="M315.36,293.65c-24.92,0-46.25,8.83-64.04,26.62c-17.52,17.52-26.28,38.78-26.28,63.7v90.39h35.99v-90.39
		c0-14.94,5.36-27.71,16.1-38.23c10.53-10.53,23.29-15.82,38.23-15.82h36.06v-36.27H315.36z"/>
	<path d="M452.27,402.04h108.39v-18.06c0-24.92-8.9-46.18-26.62-63.7c-17.52-17.79-38.78-26.62-63.7-26.62
		c-24.99,0-46.32,8.83-64.04,26.62c-17.59,17.52-26.35,38.78-26.35,63.7c0,24.99,8.76,46.32,26.35,64.04
		c17.73,17.59,39.05,26.35,64.04,26.35h90.32V438.3h-90.32c-11.68,0-22.21-3.4-31.65-10.25c-9.24-6.45-15.69-15.08-19.35-25.74
		h32.94V402.04z M438.68,339.9c9.44-6.66,19.97-9.98,31.65-9.98c11.61,0,22.14,3.33,31.58,9.98c9.24,6.66,15.69,15.35,19.42,26.08
		h-102C423,355.25,429.45,346.55,438.68,339.9z"/>
	<path d="M890.23,438.3c-15.01,0-27.78-5.37-38.3-16.1c-10.73-10.53-16.03-23.23-16.03-38.23v-27h72.33v-36.27H835.9v-27.06h-36.06
		v90.32c0,24.99,8.76,46.32,26.35,64.04c17.73,17.59,39.05,26.35,64.04,26.35h35.99V438.3H890.23z"/>
	<path d="M1101.65,293.65V438.3h-53.99c-15.01,0-27.78-5.37-38.3-16.1c-10.66-10.53-16.03-23.23-16.03-38.23v-90.32h-36.06v90.32
		c0,24.99,8.76,46.32,26.35,64.04c17.73,17.59,39.05,26.35,64.04,26.35h90.32V293.65H1101.65z"/>
	<path d="M1221.38,329.92h126.39v-36.27h-126.39c-14.94,0-27.78,5.23-38.51,15.76c-10.53,10.73-15.76,23.57-15.76,38.57
		c0,14.94,5.23,27.71,15.76,38.23c10.73,10.53,23.57,15.82,38.51,15.82h72.12c4.96,0,9.24,1.7,12.7,5.23
		c3.53,3.53,5.3,7.74,5.3,12.77c0,4.96-1.77,9.3-5.3,13.04c-3.46,3.46-7.74,5.23-12.7,5.23h-126.38v36.06h126.38
		c14.94,0,27.78-5.3,38.51-15.82c10.53-10.73,15.76-23.57,15.76-38.51c0-15.01-5.23-27.71-15.76-38.23
		c-10.73-10.53-23.57-15.82-38.51-15.82h-72.12c-4.96,0-9.3-1.77-12.97-5.3c-3.53-3.46-5.3-7.74-5.3-12.7
		c0-5.03,1.77-9.24,5.3-12.77C1212.07,331.68,1216.42,329.92,1221.38,329.92z"/>
	<path d="M768.44,371.28c-2.56-19.51-11.06-36.55-25.69-51.04c-17.55-17.73-38.8-26.61-63.74-26.61c-24.95,0-46.29,8.87-64.03,26.61
		c-17.55,17.55-26.33,38.8-26.33,63.75c0,24.94,8.77,46.29,26.33,64.03c15.26,15.1,33.19,23.66,53.77,25.77l15.66,0.56h84.94v-87.41
		L768.44,371.28z M733.05,438.31h-48.64l-15.66-0.92c-10.62-1.94-19.96-6.97-28-15.15c-10.72-10.53-16.07-23.28-16.07-38.25
		c0-14.97,5.35-27.72,16.07-38.25c10.53-10.53,23.29-15.8,38.25-15.8c14.96,0,27.72,5.27,38.25,15.8
		c7.41,7.41,12.15,15.93,14.35,25.54l1.45,15.66V438.31z"/>
</g>
</svg>